<svg width="1080px" height="1080px" xmlns="http://www.w3.org/2000/svg" xmlns:xlink="http://www.w3.org/1999/xlink">
<g style="">  <path d="M393.410004,276.540009 C406.570004,275.400009,419.800003,276.080009,433.000004,275.990009 C563.009998,276.030009,693.019993,275.960009,823.030003,276.010009 C830.000002,275.830009,838.050003,276.390009,843.080002,281.920008 C849.440002,287.840008,849.730002,297.460008,847.510002,305.360009 C818.670002,401.580010,789.970001,497.850014,761.220001,594.099999 C759.430001,600.929999,756.350001,608.209999,749.960001,611.950000 C743.790000,616.100000,735.970001,614.559999,729.010000,615.090000 C679.000001,614.940000,638.990003,614.970000,588.989995,615.080000 C581.619996,614.640000,573.669996,615.800000,566.939996,612.070000 C560.099996,609.080000,556.609996,601.410000,556.379996,594.279999 C555.999996,586.319999,561.429996,579.949999,566.699996,574.709999 C600.339995,541.340000,633.639998,507.639999,667.339995,474.320000 C671.909995,469.830000,675.739995,463.780000,674.949995,457.090000 C674.199995,446.610001,671.589995,377.540001,660.989996,378.170000 C567.659994,377.740000,474.310003,378.130000,380.970007,378.020000 C371.080007,379.090000,360.850006,372.030000,358.640007,362.340000 C357.130007,357.160000,358.850007,352.029999,360.120007,347.060000 C371.580007,308.900000,366.230008,330.799998,377.530007,292.600001 C380.020007,285.200001,385.070007,277.710001,393.410007,276.540001 Z " style="fill: rgba(254, 254, 254, 1.000000); stroke-width: 0.000000px; stroke: rgba(0, 0, 0, 1.000000); " fill="#fefefe" stroke="#000000" stroke-width="0.000000" />
  <path d="M337.429993,465.609985 C348.919992,464.509985,360.479992,464.989985,371.999992,464.959985 C415.339993,465.039985,445.669991,465.019985,489.009987,464.919985 C497.519987,465.289985,507.759987,463.779985,514.309986,470.679986 C522.869987,477.839985,523.349986,492.499985,515.209986,500.189986 C484.849985,530.829985,454.209986,561.199984,423.739985,591.739989 C417.019985,598.689989,409.299985,604.839989,404.119984,613.129988 C398.719984,623.829988,402.679984,694.829989,413.859984,698.159989 C419.149984,699.169989,424.609984,698.879989,429.989983,699.089989 C521.669983,698.959989,613.349984,698.919989,705.029992,699.069989 C717.949992,699.729989,727.249991,714.569989,722.559992,726.579989 C713.169992,759.749987,719.389992,735.819987,710.009993,768.999987 C707.039993,778.449987,705.639993,788.639987,700.039993,797.029988 C695.019993,803.039988,686.429993,804.449988,679.029992,804.009988 C537.339990,803.969988,395.649988,804.039988,253.969995,803.979988 C248.279995,804.309988,242.279995,802.909988,237.959995,799.049988 C231.839995,793.999988,229.859994,785.199988,231.639995,777.659989 C261.089995,679.779992,290.599994,581.889985,319.989993,483.989975 C321.809993,475.289976,328.009993,466.489975,337.429994,465.609976 Z " style="fill: rgba(254, 254, 254, 1.000000); stroke-width: 0.000000px; stroke: rgba(0, 0, 0, 1.000000); " fill="#fefefe" stroke="#000000" stroke-width="0.000000" />
</g></svg>