<svg xmlns="http://www.w3.org/2000/svg" viewBox="0 0 1080 1080">
  <rect width="1080" height="1080" rx="120" fill="#1a1b26"/>
  <path fill="#fefefe" d=" M 393.41 276.54 C 406.57 275.40 419.80 276.08 433.00 275.99 C 563.01 276.03 693.02 275.96 823.03 276.01 C 830.00 275.83 838.05 276.39 843.08 281.92 C 849.44 287.84 849.73 297.46 847.51 305.36 C 818.67 401.58 789.97 497.85 761.22 594.10 C 759.43 600.93 756.35 608.21 749.96 611.95 C 743.79 616.10 735.97 614.56 729.01 615.09 C 679.00 614.94 628.99 614.97 578.99 615.08 C 571.62 614.64 563.67 615.80 556.94 612.07 C 550.10 609.08 546.61 601.41 546.38 594.28 C 546.00 586.32 551.43 579.95 556.70 574.71 C 590.34 541.34 623.64 507.64 657.34 474.32 C 661.91 469.83 665.74 463.78 664.95 457.09 C 664.20 446.61 654.59 437.54 643.99 438.17 C 550.66 437.74 457.31 438.13 363.97 438.02 C 354.08 439.09 343.85 432.03 341.64 422.34 C 340.13 417.16 341.85 412.03 343.12 407.06 C 354.58 368.90 366.23 330.80 377.53 292.60 C 380.02 285.20 385.07 277.71 393.41 276.54 Z"/>
  <path fill="#fefefe" d=" M 337.43 465.61 C 348.92 464.51 360.48 464.99 372.00 464.96 C 415.34 465.04 458.67 465.02 502.01 464.92 C 510.52 465.29 520.76 463.78 527.31 470.68 C 535.87 477.84 536.35 492.50 528.21 500.19 C 497.85 530.83 467.21 561.20 436.74 591.74 C 430.02 598.69 422.30 604.84 417.12 613.13 C 411.72 623.83 418.68 637.83 429.86 641.16 C 435.15 642.17 440.61 641.88 445.99 642.09 C 537.67 641.96 629.35 641.92 721.03 642.07 C 733.95 642.73 743.25 657.57 738.56 669.58 C 729.17 702.75 719.39 735.82 710.01 769.00 C 707.04 778.45 705.64 788.64 700.04 797.03 C 695.02 803.04 686.43 804.45 679.03 804.01 C 537.34 803.97 395.65 804.04 253.97 803.98 C 248.28 804.31 242.28 802.91 237.96 799.05 C 231.84 794.00 229.86 785.20 231.64 777.66 C 261.09 679.78 290.60 581.89 319.99 483.99 C 321.81 475.29 328.01 466.49 337.43 465.61 Z"/>
</svg>
